<svg width="947" height="320" viewBox="0 0 947 320" fill="none" xmlns="http://www.w3.org/2000/svg">
<rect width="947" height="320" fill="#0D6EFD"/>
<path d="M136.577 0C136.583 1.76247 136.608 3.53081 136.654 5.30273C137.417 34.4942 143.79 64.3967 161.235 85.2109C183.011 93.0328 221.376 125.722 206.72 195.274C199.529 229.398 209.251 263.674 224.464 292.758C229.565 302.51 235.278 311.658 241.154 320H237.495C231.972 312.025 226.621 303.353 221.806 294.148C206.417 264.73 196.396 229.719 203.784 194.656C218.196 126.265 180.237 95.0041 159.85 87.8994L159.463 87.7646L159.198 87.4521C140.908 65.8554 134.429 34.9764 133.655 5.38086C133.608 3.58272 133.583 1.78833 133.577 0H136.577ZM152.739 0C153.578 4.17427 154.502 8.39655 155.521 12.6416C163.327 45.1877 176.539 78.9237 197.911 102.934L200.394 105.71C212.567 119.267 221.228 127.989 227.804 133.674C234.809 139.73 239.379 142.278 243.234 143.568C245.172 144.217 246.973 144.563 248.894 144.861C250.789 145.156 252.881 145.414 255.205 145.879C259.937 146.825 265.739 148.638 274.326 153.45C283.111 158.373 287.593 164.599 289.816 171.435C292.009 178.176 291.974 185.44 291.934 192.319C291.893 199.303 291.848 205.866 293.779 211.68C295.671 217.374 299.492 222.421 307.436 226.233L308.099 226.565C314.886 230.111 319.726 237.152 323.15 245.943C326.696 255.045 328.813 266.249 329.953 278.022C331.3 291.926 331.289 306.729 330.608 320H324.68C320.979 304.26 310.575 285.802 286.552 272.907C281.721 270.314 277.859 269.216 274.815 269.202C271.833 269.189 269.579 270.214 267.839 272.04C266.056 273.912 264.73 276.718 263.859 280.374C262.992 284.018 262.603 288.399 262.612 293.299C262.628 301.307 263.706 310.559 265.378 320H262.332C260.687 310.593 259.628 301.358 259.612 293.305C259.603 288.264 260 283.63 260.94 279.68C261.878 275.741 263.382 272.37 265.667 269.971C267.995 267.526 271.049 266.185 274.829 266.202C278.549 266.219 282.908 267.547 287.971 270.265C312.947 283.671 323.795 302.954 327.634 319.469C328.288 306.42 328.285 291.915 326.968 278.312C325.841 266.675 323.76 255.775 320.354 247.032C317.045 238.537 312.568 232.286 306.709 229.225L306.138 228.938C297.485 224.786 293.089 219.117 290.933 212.626C288.816 206.255 288.893 199.163 288.934 192.302C288.975 185.336 288.98 178.565 286.963 172.362C284.976 166.254 280.996 160.627 272.859 156.067C264.525 151.397 259.017 149.701 254.617 148.821C252.376 148.373 250.444 148.139 248.433 147.826C246.446 147.517 244.453 147.141 242.282 146.414C237.921 144.954 233.012 142.143 225.841 135.943C219.126 130.138 210.366 121.306 198.158 107.711L195.671 104.928C173.826 80.386 160.461 46.099 152.604 13.3408C151.529 8.85903 150.557 4.40248 149.68 0H152.739ZM175.814 0C179.884 24.749 186.165 47.2171 195.36 64.834C206.058 85.3298 220.587 99.0727 240.005 102.453C260.54 106.028 278.019 119.081 292.763 137.668C307.506 156.256 319.609 180.492 329.394 206.692C343.249 243.794 352.506 284.986 358.006 320H354.969C349.486 285.248 340.294 244.457 326.583 207.742C316.858 181.7 304.888 157.782 290.412 139.532C275.936 121.282 259.048 108.813 239.491 105.408C218.816 101.809 203.643 87.1858 192.701 66.2217C183.247 48.1083 176.871 25.1209 172.774 0H175.814ZM221.448 0C230.56 36.5238 246.929 68.3785 274.377 85.2041C292.264 96.1691 306.702 114.311 318.305 136.357C329.913 158.415 338.735 184.481 345.343 211.431C354.442 248.542 359.359 287.423 361.541 320H358.534C356.355 287.613 351.463 248.989 342.429 212.145C335.857 185.34 327.106 159.525 315.649 137.755C304.187 115.974 290.068 98.3415 272.809 87.7617C244.233 70.245 227.531 37.2217 218.356 0H221.448ZM444.596 0C451.08 17.3084 458.226 43.529 460.438 71C462.84 100.847 459.443 132.449 442.732 155.636C426.649 177.953 423.199 210.693 425.584 242.837C427.767 272.26 434.818 300.905 441.214 320H438.053C431.676 300.712 424.761 272.281 422.593 243.059C420.194 210.721 423.579 177.082 440.298 153.882C456.391 131.552 459.828 100.819 457.447 71.2412C455.429 46.1643 449.241 22.1173 443.267 5.13086C445.216 115.547 401.221 157.309 382.403 212.142C378.599 223.227 378.04 236.839 379.739 251.691C381.436 266.528 385.374 282.5 390.467 298.245C392.846 305.601 395.476 312.899 398.242 320H395.025C392.393 313.19 389.889 306.206 387.612 299.168C382.481 283.304 378.486 267.129 376.759 252.032C375.034 236.951 375.56 222.841 379.566 211.168C399.086 154.29 443.586 113.622 440.145 0H444.596ZM573.451 0C571.035 4.81293 568.704 9.66581 566.496 14.5225C558.757 31.5454 552.535 48.5549 549.345 63.9502C546.148 79.3786 546.036 92.9949 550.295 103.36L550.812 104.64C561.467 131.498 560.235 158.336 550.755 178.626C541.119 199.25 522.909 213.155 500.093 213.155C491.885 213.155 485.544 217.512 480.63 224.93C475.687 232.392 472.285 242.835 470.065 254.605C466.03 276.012 465.985 301.374 467.312 320H463.242C447.996 261.66 450.515 233.882 460.055 209.961C464.927 197.745 471.667 186.478 478.547 172.857C485.459 159.175 492.656 142.869 498.643 120.237L499.078 118.539C507.45 84.9207 503.023 41.7164 493.481 0H496.557C506.029 41.6648 510.488 85.1461 501.988 119.271L501.543 121.004C495.489 143.889 488.204 160.394 481.225 174.211C474.213 188.09 467.65 199.013 462.841 211.072C454.151 232.862 451.301 258.185 463.755 309.74C463.118 292.542 463.739 271.972 467.117 254.05C469.367 242.114 472.865 231.219 478.129 223.272C483.422 215.282 490.597 210.155 500.093 210.155C521.534 210.155 538.797 197.129 548.036 177.356C557.136 157.881 558.402 131.906 548.023 105.747L547.52 104.501C542.927 93.3218 543.162 79.0011 546.407 63.3408C549.659 47.6472 555.975 30.4138 563.765 13.2803C565.783 8.8406 567.903 4.40465 570.096 0H573.451ZM613.44 0C603.414 5.74114 596.923 11.2782 592.866 15.9473C588.186 21.3343 586.856 25.4317 586.855 27.3105V27.6416L586.716 27.9424C581.24 39.726 573.353 75.002 586.794 120.192L587.185 121.556C595.069 150.123 582.658 174.844 567.624 196.115C560.029 206.862 551.54 217.018 544.731 226.17C537.823 235.455 532.558 243.81 530.845 251.432C529.941 255.451 529.055 258.46 528.149 260.673C527.253 262.862 526.281 264.419 525.122 265.38C523.877 266.412 522.533 266.66 521.215 266.47C520.01 266.295 518.811 265.747 517.77 265.267C515.535 264.235 513.522 263.283 511.1 263.774C508.767 264.248 505.682 266.167 501.722 271.863L501.336 272.426C498.222 277.033 497.402 282.716 498.277 289.052C499.154 295.397 501.717 302.285 505.22 309.138C507.102 312.821 509.246 316.473 511.521 320H507.969C506.026 316.9 504.191 313.716 502.549 310.503C498.962 303.486 496.245 296.263 495.306 289.462C494.365 282.652 495.195 276.152 498.85 270.746L499.253 270.158C503.4 264.191 507.063 261.533 510.503 260.835C514.039 260.118 516.95 261.584 519.027 262.543C520.142 263.058 520.945 263.4 521.645 263.501C522.23 263.586 522.694 263.496 523.207 263.07C523.807 262.573 524.548 261.551 525.373 259.536C526.188 257.544 527.031 254.72 527.918 250.774C529.785 242.466 535.422 233.656 542.324 224.379C549.326 214.968 557.557 205.163 565.175 194.384C580.093 173.277 591.801 149.553 584.29 122.347L583.918 121.048C570.386 75.5494 578.072 39.7131 583.864 26.9639C584.004 24.0149 585.903 19.3878 590.602 13.9795C594.279 9.74673 599.736 4.95701 607.612 0H613.44ZM645.774 0C642.99 4.34772 639.9 8.53461 636.48 12.5273L635.293 13.8906C619.799 31.392 613.029 53.7992 610.646 78C608.261 102.215 610.28 128.063 612.234 152.362C614.181 176.569 616.079 199.343 613.32 217.101C611.937 226.003 609.368 233.774 604.953 239.88C600.652 245.828 594.657 250.114 586.52 252.348L585.725 252.557C559.969 259.096 545.49 275.779 537.81 294.054C534.193 302.659 532.093 311.611 531.045 320H528.021C529.084 311.255 531.259 301.898 535.044 292.891C543.017 273.918 558.153 256.462 584.986 249.649L585.72 249.456C593.228 247.396 598.636 243.495 602.521 238.122C606.557 232.54 609.013 225.281 610.355 216.641C613.048 199.312 611.202 176.947 609.244 152.603C607.293 128.35 605.245 102.233 607.66 77.7061C610.077 53.1662 616.975 30.0558 633.047 11.9023L634.202 10.5762C637.102 7.19034 639.76 3.65781 642.191 0H645.774ZM408.751 0C408.932 5.52495 409.085 10.9416 409.202 16.2012C409.696 38.2892 409.592 57.6639 408.51 70.6621C407.972 77.1175 407.183 82.1677 406.031 85.1943C405.738 85.9643 405.402 86.6589 405.006 87.2305C404.615 87.795 404.107 88.3239 403.443 88.6367C402.733 88.9712 401.967 88.9985 401.233 88.748C400.633 88.5429 400.101 88.1694 399.632 87.7227L399.435 87.5264C398.572 86.6369 397.854 86.3786 397.272 86.374C396.658 86.3694 395.883 86.6452 394.927 87.4316C392.972 89.04 390.836 92.2981 388.618 96.8477C384.223 105.865 379.901 119.102 376.073 131.586C372.275 143.971 368.942 155.696 366.566 161.415C365.98 162.828 365.389 164.033 364.792 164.792C364.519 165.139 364.057 165.642 363.386 165.833C363 165.942 362.567 165.941 362.146 165.775C361.747 165.618 361.463 165.354 361.27 165.111C360.909 164.659 360.705 164.075 360.567 163.54C360.421 162.968 360.308 162.271 360.221 161.462C360.046 159.84 359.959 157.624 359.959 154.759C359.959 132.608 348.118 115.909 331.061 97.1641C314.333 78.7817 292.642 58.496 273.262 29.5225L272.341 28.1367C266.975 20.0069 263.056 10.4558 260.302 0H263.407C266.075 9.87526 269.809 18.8533 274.845 26.4834L275.758 27.8584C294.966 56.5757 316.371 76.5632 333.28 95.1455C350.393 113.952 362.959 131.392 362.959 154.759C362.959 157.583 363.045 159.676 363.203 161.141C363.217 161.268 363.232 161.389 363.246 161.505C363.414 161.151 363.599 160.738 363.796 160.264C366.098 154.722 369.356 143.261 373.205 130.707C377.024 118.252 381.408 104.794 385.922 95.5332C388.158 90.9444 390.528 87.1666 393.021 85.1152C394.289 84.0723 395.727 83.3622 397.295 83.374C398.896 83.3863 400.336 84.1475 401.588 85.4385L401.812 85.6514C402.002 85.8151 402.13 85.8805 402.192 85.9043C402.246 85.8677 402.37 85.7674 402.54 85.5215C402.752 85.2158 402.986 84.7616 403.228 84.1279C404.213 81.538 404.983 76.8705 405.521 70.4131C406.589 57.5835 406.697 38.3434 406.203 16.2676C406.085 10.9876 405.932 5.54855 405.75 0H408.751Z" fill="#4892FF"/>
<path d="M117.543 0C119.067 15.8743 120.966 32.0452 123.298 47.6855C126.872 71.6584 131.454 94.3418 137.238 112.785C143.048 131.31 149.985 145.264 158.09 152.095C175.232 166.542 181.026 180.015 180.997 191.157C180.969 202.254 175.163 210.694 169.789 215.092L169.589 215.255L169.347 215.343C155.047 220.49 121.222 231.924 97.2607 237.619L94.9736 238.152C92.4273 238.733 90.0913 240.424 87.958 243.236C85.8199 246.055 83.9515 249.918 82.3457 254.648C79.1342 264.109 77.0684 276.743 75.8438 290.646C75.0116 300.092 74.5704 310.083 74.415 320H71.417C71.5723 310.002 72.0152 299.922 72.8555 290.383C74.0878 276.393 76.1794 263.481 79.5049 253.685C81.1675 248.787 83.1633 244.594 85.5684 241.423C87.9781 238.246 90.8656 236.012 94.3066 235.228L96.5762 234.698C120.221 229.078 153.658 217.791 168.081 212.608C172.85 208.617 177.972 201.046 177.997 191.149C178.023 181.164 172.858 168.465 156.156 154.389C147.339 146.957 140.2 132.254 134.376 113.683C128.526 95.0296 123.915 72.1755 120.33 48.1279C117.976 32.3384 116.062 16.0147 114.529 0H117.543ZM124.333 263.187C129.394 260.536 134.923 260.664 140.546 262.721C146.311 264.83 152.262 268.99 158.158 274.405C169.958 285.243 181.88 301.424 192.073 317.534C192.593 318.356 193.107 319.179 193.618 320H190.078C189.898 319.713 189.719 319.425 189.538 319.139C179.392 303.103 167.638 287.184 156.129 276.614C150.371 271.326 144.757 267.456 139.515 265.538C134.474 263.694 129.857 263.677 125.715 265.849L125.315 266.066C110.708 274.286 99.3653 293.559 91.1406 314.727C90.4609 316.476 89.8041 318.236 89.1689 320H85.9834C86.739 317.872 87.5253 315.748 88.3447 313.64C96.5976 292.4 108.253 272.225 123.845 263.451L124.333 263.187ZM132.269 0C137.319 23.0231 142.314 46.5374 146.229 66.4697L146.521 67.916C149.597 82.7208 154.436 93.3359 159.958 101.4C165.66 109.728 172.134 115.403 178.302 120.195C184.397 124.931 190.437 128.967 194.835 133.813C199.341 138.779 202.231 144.678 202.231 153.241C202.231 169.546 202.394 219.21 204.508 267.349C205.318 285.79 206.415 303.992 207.896 320H204.884C203.409 303.986 202.317 285.834 201.511 267.479C199.394 219.274 199.231 169.557 199.231 153.241C199.231 145.495 196.669 140.299 192.613 135.829C188.449 131.24 182.813 127.5 176.461 122.563C170.181 117.684 163.435 111.789 157.482 103.096C151.714 94.6708 146.732 83.6788 143.584 68.5273L143.285 67.0479C139.339 46.9539 134.291 23.2093 129.196 0H132.269ZM864.778 13.1943C864.157 16.262 863.263 19.8214 862.079 23.7314C856.197 45.8952 847.341 74.6887 837.163 99.2891C831.23 113.63 824.819 126.618 818.251 136.046C814.968 140.759 811.604 144.641 808.193 147.357C804.786 150.071 801.221 151.707 797.571 151.707C794.377 151.707 791.468 153.848 788.775 158.375C786.097 162.879 783.856 169.399 781.924 177.339C778.065 193.2 775.553 214.221 773.026 234.881C770.509 255.464 767.975 275.72 764.054 289.827C762.102 296.848 759.747 302.58 756.719 306.054C755.183 307.815 753.401 309.08 751.334 309.563C749.38 310.021 747.341 309.741 745.251 308.784L744.832 308.583C738.973 305.656 730.568 306.003 720.484 308.867C712.293 311.194 703.199 315.124 693.835 320H687.48C698.663 313.856 709.745 308.799 719.664 305.981C729.938 303.063 739.276 302.454 746.173 305.899L746.498 306.056C748.105 306.793 749.466 306.92 750.65 306.643C751.931 306.343 753.2 305.525 754.458 304.082C757.017 301.146 759.23 295.978 761.163 289.024C765.011 275.182 767.521 255.182 770.048 234.517C772.566 213.927 775.098 192.701 779.009 176.629C780.962 168.602 783.287 161.735 786.196 156.842C789.092 151.973 792.793 148.707 797.571 148.707C800.3 148.707 803.221 147.482 806.324 145.011C809.423 142.542 812.595 138.915 815.789 134.331C822.175 125.165 828.489 112.408 834.391 98.1426C840.669 82.9667 846.448 66.165 851.33 50.3242C849.6 53.7237 847.704 57.1585 845.635 60.5752C834.883 78.3238 819.386 95.7239 798.188 105.298C777.464 114.658 762.494 124.268 752.213 132.453C742.261 140.376 736.773 146.908 734.671 150.538C736.602 172.101 737.613 204.753 734.399 233.255C732.782 247.601 730.085 260.985 725.849 271.394C721.635 281.747 715.749 289.512 707.534 291.988C694.268 295.987 679.484 307.024 665.815 320H661.487C675.844 306.03 691.96 293.549 706.669 289.115C713.554 287.04 718.961 280.359 723.07 270.263C727.157 260.221 729.814 247.147 731.418 232.918C734.625 204.477 733.589 171.775 731.643 150.343L731.602 149.891L731.818 149.491C734.017 145.446 739.887 138.431 750.345 130.105C760.837 121.752 776.024 112.018 796.954 102.564C817.412 93.3246 832.505 76.4599 843.069 59.0215C850.787 46.2812 856.045 33.2971 859.195 22.9004C860.164 19.2491 861.054 15.779 861.853 12.5381L864.778 13.1943ZM903.047 0C902.337 15.5775 900.719 33.1217 897.721 50.5693C892.341 81.878 882.479 113.184 865.228 132.136L864.4 133.029C842.543 156.224 822.827 176.385 810.235 196.612C797.695 216.757 792.331 236.798 799.012 259.788C805.781 283.082 818.506 302.607 828.482 319.764C828.528 319.842 828.573 319.921 828.618 320H825.144C815.369 303.298 802.858 283.776 796.131 260.626C789.144 236.582 794.845 215.657 807.688 195.026C820.48 174.478 840.467 154.052 862.217 130.972L863.015 130.11C879.649 111.832 889.401 81.2692 894.764 50.0615C897.73 32.797 899.337 15.4287 900.045 0H903.047ZM866.24 189.729C875.054 187.255 884.186 188.439 891.14 191.635C897.993 194.785 903.209 200.154 903.209 206.345C903.209 208.161 903.84 210.517 905.118 213.367C906.387 216.195 908.243 219.401 910.573 222.886C915.234 229.855 921.713 237.824 928.946 245.953C934.567 252.27 940.63 258.662 946.619 264.733V268.998C939.911 262.262 933.034 255.059 926.705 247.947C919.43 239.772 912.85 231.687 908.08 224.554C905.695 220.988 903.742 217.629 902.381 214.595C901.03 211.583 900.209 208.776 900.209 206.345C900.209 201.915 896.341 197.328 889.887 194.361C883.533 191.441 875.131 190.35 867.051 192.617C859.017 194.872 851.229 200.464 846.036 211.059C840.824 221.693 838.189 237.453 840.718 260.04L841.091 263.425C843.635 286.851 844.814 305.444 845.134 320H842.133C841.814 305.563 840.642 287.08 838.108 263.75L837.736 260.374C835.169 237.444 837.794 221.056 843.342 209.738C848.909 198.381 857.379 192.215 866.24 189.729ZM76.8877 0C79.9927 55.2701 90.4703 96.8013 100.938 126.668C107.177 144.473 113.418 158.147 118.107 168.145C120.446 173.129 122.422 177.249 123.806 180.488C124.499 182.111 125.06 183.551 125.449 184.795C125.832 186.02 126.08 187.153 126.08 188.138V188.76L125.641 189.199C120.715 194.121 103.873 203.293 74.4639 203.293C66.11 203.293 60.2109 208.323 55.6055 216.271C50.9798 224.255 47.8498 234.878 44.9961 245.427C42.1738 255.859 39.6068 266.295 36.0889 273.501C34.3271 277.11 32.2347 280.112 29.5762 281.887C26.9074 283.668 23.8084 284.117 20.2891 282.979L19.9473 282.864C15.6538 281.363 11.2183 283.429 6.5957 288.877C4.33654 291.54 2.13082 294.906 0 298.798V292.878C1.39905 290.668 2.8362 288.671 4.30859 286.936C9.16397 281.213 14.8174 277.892 20.9375 280.032L21.4639 280.203C24.0604 280.979 26.1218 280.585 27.9102 279.392C29.9139 278.054 31.7173 275.616 33.3926 272.185C36.7492 265.309 39.227 255.261 42.0996 244.643C44.9409 234.14 48.1574 223.142 53.0098 214.768C57.8824 206.358 64.5938 200.293 74.4639 200.293C102.351 200.293 118.19 191.883 123.031 187.535C122.964 187.056 122.823 186.448 122.586 185.689C122.241 184.585 121.724 183.251 121.047 181.667C119.69 178.491 117.752 174.449 115.392 169.418C110.685 159.384 104.395 145.605 98.1064 127.66C87.5417 97.5151 76.9936 55.6528 73.8838 0H76.8877ZM802.213 0C801.338 6.14352 800.244 12.5399 798.961 18.9746C795.573 35.9581 790.852 53.2894 785.325 67.0225C782.563 73.8859 779.58 79.8999 776.433 84.5332C773.312 89.1262 769.902 92.5568 766.211 93.9551C762.663 95.2992 759.559 95.2829 756.834 94.1211C754.16 92.9808 752.042 90.8168 750.259 88.2363C748.473 85.652 746.939 82.524 745.49 79.2979C744.015 76.0136 742.659 72.7045 741.137 69.4863C738.074 63.0129 734.727 57.8231 729.904 55.9736C725.223 54.1786 718.479 55.3286 708.018 63.3945C697.607 71.4215 694.369 77.7154 694.415 84.0781C694.439 87.3417 695.324 90.7593 696.778 94.6152C698.239 98.4866 700.214 102.657 702.37 107.492C706.663 117.119 711.51 129.032 713.623 145.008C715.736 160.983 715.106 180.949 708.556 206.715C698.118 247.774 684.874 268.147 672.227 276.716C659.397 285.408 647.427 281.811 640.387 275.758L638.085 273.779L641.056 273.153C654.128 270.4 663.304 263.225 669.529 252.834C675.787 242.389 679.091 228.64 680.222 212.781C682.412 182.047 676.414 143.88 668.644 107.742L667.887 104.252C661.27 74.0181 670.716 42.1546 685.025 14.7441C687.673 9.67171 690.492 4.74436 693.412 0H696.944C693.712 5.16648 690.594 10.5608 687.686 16.1318C673.52 43.2661 664.417 74.3685 670.817 103.61L671.575 107.104C679.357 143.289 685.437 181.812 683.214 212.995C682.066 229.092 678.699 243.367 672.103 254.376C665.982 264.592 657.104 271.95 644.807 275.329C651.121 279.434 660.432 281.083 670.544 274.232C682.25 266.301 695.258 246.846 705.647 205.976C712.115 180.535 712.705 160.956 710.648 145.401C708.592 129.848 703.879 118.243 699.63 108.715C697.515 103.973 695.473 99.6551 693.972 95.6738C692.464 91.6774 691.442 87.8765 691.415 84.0996C691.359 76.3805 695.443 69.3028 706.186 61.0195C716.877 52.7757 724.778 50.7955 730.979 53.1729C737.037 55.4962 740.81 61.7806 743.849 68.2031C745.377 71.4329 746.817 74.9284 748.228 78.0684C749.664 81.2666 751.105 84.1847 752.727 86.5312C754.35 88.881 756.071 90.5339 758.011 91.3613C759.9 92.1667 762.188 92.2704 765.147 91.1494C767.965 90.0819 770.942 87.2765 773.951 82.8467C776.933 78.4568 779.823 72.658 782.542 65.9023C787.978 52.3963 792.655 35.2575 796.02 18.3877C797.265 12.1449 798.326 5.94947 799.182 0H802.213ZM55.0928 0C54.1116 2.21493 53.1723 4.49848 52.29 6.84375C45.6975 24.369 42.3027 45.2173 47.9268 66.373L48.5908 68.9219C55.3571 95.3775 58.9616 125.582 55.9404 152.178C52.8747 179.165 42.9356 202.776 22.1592 214.689L21.1611 215.247C13.2497 219.57 6.4902 228.576 0.804688 240.659C0.533624 241.235 0.265752 241.818 0 242.407V235.518C5.41465 225.075 11.9123 216.883 19.7227 212.615L20.6621 212.089C40.2304 200.868 49.9381 178.432 52.959 151.84C55.9277 125.706 52.3895 95.882 45.6855 69.6689L45.0273 67.1445C39.1964 45.2108 42.7432 23.702 49.4824 5.78711C50.2245 3.8144 51.0059 1.88402 51.8184 0H55.0928ZM921.17 0C915.066 80.7249 929.527 159.932 946.619 218.465V228.89C928.254 169.354 911.733 85.5688 918.162 0H921.17ZM17.0732 0C20.9916 21.3813 24.6536 44.3864 27.1396 65.9805C29.5295 86.7394 30.8402 106.248 30.2393 121.774C29.9389 129.535 29.1597 136.355 27.7754 141.861C26.4011 147.328 24.3807 151.705 21.4473 154.354C16.4372 158.88 11.4912 166.184 6.78027 175.175C4.44266 179.636 2.17637 184.487 0 189.576V182.188C1.34481 179.274 2.71947 176.461 4.12305 173.782C8.89009 164.684 14.0331 157.01 19.4365 152.129C21.7096 150.075 23.5413 146.396 24.8652 141.13C26.1792 135.903 26.946 129.311 27.2422 121.658C27.8345 106.356 26.5422 87.0227 24.1592 66.3232C21.6608 44.6218 17.9673 21.4775 14.0215 0H17.0732Z" fill="#2B80FF"/>
</svg>
